<svg width="48" height="48" viewBox="0 0 48 48" fill="none" xmlns="http://www.w3.org/2000/svg">
  <circle cx="24" cy="24" r="24" fill="#6364FF"/>
  <path d="M24 8C15.2 8 8 15.2 8 24s7.2 16 16 16 16-7.2 16-16S32.8 8 24 8zm0 28c-6.6 0-12-5.4-12-12s5.4-12 12-12 12 5.4 12 12-5.4 12-12 12z" fill="white"/>
  <path d="M16 18c0-1.1.9-2 2-2h12c1.1 0 2 .9 2 2v12c0 1.1-.9 2-2 2H18c-1.1 0-2-.9-2-2V18zm4 2v8h8v-8h-8z" fill="white"/>
  <circle cx="20" cy="22" r="1" fill="#6364FF"/>
  <circle cx="28" cy="22" r="1" fill="#6364FF"/>
  <path d="M20 26h8v2h-8v-2z" fill="#6364FF"/>
</svg> 